<svg width="315" height="315" viewBox="0 0 315 315" fill="none" xmlns="http://www.w3.org/2000/svg">
<path d="M168.133 97.4818C162.007 91.3548 152.061 91.3548 145.936 97.4818H145.928C145.912 97.4978 145.904 97.5138 145.896 97.5218L101.527 141.886C95.394 148.015 95.394 157.966 101.527 164.094V164.085C107.656 170.217 117.595 170.217 123.728 164.085L141.335 146.487V211.99C141.335 220.654 148.368 227.691 157.036 227.691C165.704 227.691 172.732 220.654 172.732 211.99V146.487L190.334 164.085C196.469 170.217 206.411 170.217 212.535 164.085V164.094C218.67 157.966 218.67 148.016 212.535 141.886L168.133 97.4818ZM293.004 78.5248C249.648 3.43582 153.62 -22.2952 78.531 21.0608C3.43601 64.4108 -22.296 160.443 21.068 235.542C64.418 310.629 160.443 336.364 235.533 293.009C310.629 249.648 336.365 153.621 293.004 78.5248ZM219.836 265.802C159.761 300.487 82.942 279.916 48.26 219.833C13.57 159.762 34.163 82.9358 94.232 48.2528C154.303 13.5698 231.126 34.1538 265.81 94.2318C300.495 154.308 279.908 231.118 219.836 265.802Z" fill="url(#paint0_linear_110_3)"/>
<defs>
<linearGradient id="paint0_linear_110_3" x1="27.5" y1="10" x2="252" y2="318" gradientUnits="userSpaceOnUse">
<stop stop-color="#E54146"/>
<stop offset="0.832402" stop-color="#41404E"/>
</linearGradient>
</defs>
</svg>
